inDegrees=no
num_controls=7
num_derivatives=13
num_iterations=60
num_multipliers=7
num_parameters=0
num_slacks=7
num_states=26
objective=0.454680
objective_accelerations=0.046021
objective_balance=0.000890
objective_effort=0.037096
objective_height=0.364506
objective_ligament=0.006166
solver_duration=680.962605
status=Solve_Succeeded
success=true
DataType=double
version=3
OpenSimVersion=4.5
endheader
time	/jointset/ground_pelvis/pelvis_tilt/value	/jointset/ground_pelvis/pelvis_tx/value	/jointset/ground_pelvis/pelvis_ty/value	/jointset/hip_r/hip_flexion_r/value	/jointset/hip_r/hip_adduction_r/value	/jointset/hip_r/hip_rotation_r/value	/jointset/back/lumbar_extension/value	/jointset/patellofemoral_r/patellar_flexion_r/value	/jointset/knee_r/knee_flexion_r/value	/jointset/knee_r/knee_adduction_r/value	/jointset/knee_r/knee_rotation_r/value	/jointset/ankle_r/ankle_angle_r/value	/jointset/subtalar_r/subtalar_angle_r/value	/jointset/ground_pelvis/pelvis_tilt/speed	/jointset/ground_pelvis/pelvis_tx/speed	/jointset/ground_pelvis/pelvis_ty/speed	/jointset/hip_r/hip_flexion_r/speed	/jointset/hip_r/hip_adduction_r/speed	/jointset/hip_r/hip_rotation_r/speed	/jointset/back/lumbar_extension/speed	/jointset/patellofemoral_r/patellar_flexion_r/speed	/jointset/knee_r/knee_flexion_r/speed	/jointset/knee_r/knee_adduction_r/speed	/jointset/knee_r/knee_rotation_r/speed	/jointset/ankle_r/ankle_angle_r/speed	/jointset/subtalar_r/subtalar_angle_r/speed	/forceset/tau_hip_flexion_r	/forceset/tau_hip_adduction_r	/forceset/tau_hip_rotation_r	/forceset/tau_knee_flexion_r	/forceset/tau_ankle_angle_r	/forceset/tau_subtalar_angle_r	/forceset/tau_lumbar_extension	lambda_cid13_p0	lambda_cid14_p0	lambda_cid14_p1	lambda_cid14_p2	lambda_cid14_p3	lambda_cid14_p4	lambda_cid14_p5	/jointset/ground_pelvis/pelvis_tilt/accel	/jointset/ground_pelvis/pelvis_tx/accel	/jointset/ground_pelvis/pelvis_ty/accel	/jointset/hip_r/hip_flexion_r/accel	/jointset/hip_r/hip_adduction_r/accel	/jointset/hip_r/hip_rotation_r/accel	/jointset/back/lumbar_extension/accel	/jointset/patellofemoral_r/patellar_flexion_r/accel	/jointset/knee_r/knee_flexion_r/accel	/jointset/knee_r/knee_adduction_r/accel	/jointset/knee_r/knee_rotation_r/accel	/jointset/ankle_r/ankle_angle_r/accel	/jointset/subtalar_r/subtalar_angle_r/accel	gamma_cid13_p0	gamma_cid14_p0	gamma_cid14_p1	gamma_cid14_p2	gamma_cid14_p3	gamma_cid14_p4	gamma_cid14_p5
0.5	-0.1263652885486258	0.03047303112774775	0.8110251753310205	0.8625524477021163	-0.2515853993547711	-0.05359436744295268	-0.6421822255590623	0.9500477636222445	0.9500477636221621	0.06134175765431229	0.1741310549441193	0.2893787861453206	0.09141276701423312	-0.3172092543692782	-0.2016644587870649	-0.4795866213954501	1.792433178305354	-0.03649258415333106	0.5076338189141565	-0.7437619149464789	1.92218871979843	1.922188719798429	-0.09328149038334843	-0.003422059413978793	0.5263387719508026	0.1142538571879025	-0.1884658034701898	0.005448217789263103	0.03545895331513096	-0.2974006239645156	0.007185788666151533	-0.01647166500800092	0.234756379230976	-8.215414112060685	-41.10758079863479	-13.34527684461072	1.40043386440281	-4.516900300657461	-643.1718120078772	56.56799298444792	0.3252559975691079	0.5750530325565483	-0.3778918681878547	-1.294773742210509	0.2181525267508305	-0.1697805956782602	1.727458170367679	-1.416802209890418	-1.416802209890432	0.4488989201789044	-0.009047757200521124	-0.4846698567903017	0.2466643407022181	-6.738800942176203e-08	1.345902260026601e-08	1.348104701693899e-06	-4.015000061514021e-08	-1.459782327204847e-07	-1.48880534450883e-07	8.778828421866608e-07
0.51	-0.1295204312379424	0.02848532734902488	0.8062115541579682	0.8804091314413344	-0.2519398106029785	-0.04852859269096458	-0.6495326853217901	0.9691957767691038	0.9691957767690058	0.0604310281736954	0.1740981170521997	0.294616872594843	0.0925668004193098	-0.3137688707676328	-0.1958586780449035	-0.483026720560406	1.778650616594186	-0.03438450448246337	0.5054436249168133	-0.7262278047542665	1.907139667564827	1.907139667564826	-0.08890171789865418	-0.003155674314260251	0.5211997496991518	0.1165426551152283	-0.1946981385523506	0.006753057063984559	0.03615184043275971	-0.3023544851819776	0.006181820793501974	-0.01643192461831775	0.2406741065644357	-7.271195820689784	-41.75172684960542	-13.60551537746679	1.630064382730328	-4.411218431538883	-648.0706343344743	56.61343072819297	0.3609955671254482	0.5859517928219103	-0.3104641647187004	-1.45793653259042	0.2079993659834048	-0.2553845233212405	1.781722370597699	-1.59007988002564	-1.590079880025674	0.4271159640880295	0.04599798173920412	-0.540373604559763	0.2186863688203663	-6.207271238994865e-08	2.202476338247155e-08	1.399956192267252e-06	2.330801812867244e-08	-1.582559910408305e-07	-1.37785303548899e-07	9.216251238141862e-07
0.52	-0.1326396568861111	0.02655620361727846	0.8013668529484524	0.89812040173402	-0.2522729683187325	-0.04348706902325607	-0.6567047369972092	0.9881850747636355	0.9881850747635429	0.05956301632825208	0.1740681462788993	0.2998011977828062	0.09374346157367422	-0.3100258461394579	-0.1899484493917707	-0.4858026286880438	1.763350489002194	-0.03224187766245624	0.5027836020571225	-0.7080802974840531	1.890445689334013	1.890445689334012	-0.08473796335502883	-0.002828635687294777	0.5155865196392089	0.118779407045459	-0.2009304736346111	0.008057896338720581	0.03684472755022416	-0.3073083463994516	0.005177852920867546	-0.0163921842286042	0.2465918338978008	-6.388036412070673	-42.39452771728823	-13.86080152271109	1.853517346448678	-4.332929865888936	-652.9493516609839	56.69174732163052	0.3857842028749299	0.5959426147507568	-0.2450536607242512	-1.598286918375177	0.2250619565787036	-0.2637463681477379	1.850137585967887	-1.745787409332549	-1.745787409332546	0.4056953319651592	0.003082948248856777	-0.5795114184488649	0.2362551412831576	-5.463062773348593e-08	2.598986329360231e-08	1.350628791636965e-06	6.380017912566278e-08	-1.583801557327634e-07	-1.21973832409726e-07	9.025980656081129e-07
0.53	-0.1357200123827944	0.02468662807992898	0.7964977158142299	0.9156713266724853	-0.2525845858973971	-0.0384743246929607	-0.6636923920227681	1.006999461311406	1.006999461311336	0.0587356360437006	0.1740416634953739	0.304927099037928	0.09494214551422922	-0.3059970172723607	-0.1839560271432421	-0.4879126514887104	1.746595206548839	-0.03008607270997985	0.4997043209753717	-0.6893678114988141	1.872177014746419	1.872177014746422	-0.08075385923817077	-0.00245811786527462	0.5095200766116408	0.1209326507831347	-0.2069913889890671	0.009268174219824876	0.0374984240411898	-0.3123595988556975	0.004138509531349559	-0.01639613966015587	0.2523183687835872	-5.56655711252708	-43.05540904832641	-14.13844838469896	2.080784204202895	-4.168891996911839	-657.8238900367236	56.75101800652907	0.4186716690216634	0.6024549808545467	-0.177177323357792	-1.750038462421711	0.2102636291414286	-0.3392624831601226	1.894238524363695	-1.905588160106203	-1.905588160105614	0.3925827177520785	0.05556315588889194	-0.6312966170548071	0.201367616032269	-4.7593594639448e-08	2.944428192585488e-08	1.294726176385152e-06	9.849599676029947e-08	-1.574967463692377e-07	-1.064241722189047e-07	8.783331684564514e-07
